<svg width="45" height="45" viewBox="0 0 45 45" fill="none" xmlns="http://www.w3.org/2000/svg">
<path d="M4.18083 21.6458C2.07216 26.7005 5.73685 32.8015 11.0602 33.871C6.91177 31.0852 4.32146 26.6098 4.18083 21.6458Z" fill="white"/>
<path d="M11.0602 33.8709L10.9308 33.8435C10.947 33.8477 10.9856 33.8541 11.0602 33.8709ZM1.40625 31.121C1.75008 35.3538 7.05867 38.0665 10.8682 36.3326C6.94617 35.4902 4.34461 34.7189 1.40625 31.121ZM32.6981 16.027C35.1675 10.987 31.661 4.75171 26.3313 3.39679C30.4088 6.37312 32.8275 11.0074 32.6981 16.027ZM34.3582 12.5494C37.3057 9.94147 36.1174 4.75312 32.7185 3.06421C34.3568 6.27397 34.9341 8.98522 34.3582 12.5494Z" fill="white"/>
<path d="M42.5525 10.0864C41.8856 9.57664 41.0694 9.30086 40.23 9.30169C35.1633 9.30169 34.2549 15.9012 33.1306 18.4775C33.1306 18.4775 27.9352 7.60083 26.1282 4.01208C24.2649 0.310126 20.2873 1.07513 19.1222 3.09028C16.3547 0.222235 11.1256 2.53763 11.7922 6.02442C8.2034 5.7488 6.75286 9.28903 7.5495 11.5587C4.77567 11.4729 3.47911 14.9035 4.41708 17.3595C4.46559 17.4875 9.39028 27.1793 10.7164 30.4812C10.8704 30.8644 11.0257 31.2743 11.1889 31.7061C12.2611 34.5411 13.73 38.4237 17.4045 41.5421C18.9865 42.8843 21.1768 43.5938 23.7404 43.5938C28.2586 43.5938 33.2895 41.3515 36.5576 37.8802C39.4847 34.7717 40.8875 30.9558 40.6146 26.8447C40.37 23.149 41.5456 19.6672 42.4899 16.8687C43.5143 13.8319 44.3229 11.4329 42.5525 10.0864M38.371 26.7223C38.9426 34.8983 30.7477 41.7966 23.7952 41.7966C21.6711 41.7966 19.471 41.4535 18.0964 40.287C14.1547 36.9415 13.1654 32.8015 12.0228 29.9623C10.658 26.5655 7.30832 20.0384 5.68481 16.7548C5.02036 15.4104 6.13059 12.5494 8.06418 12.5494L13.6407 24.4097L15.7536 25.6782C15.7536 25.6782 10.9147 15.1327 9.38254 11.4983C8.48817 9.37622 10.0294 6.81403 12.1065 7.14802L19.0294 21.9249L21.143 23.1961L13.0739 6.15731C13.0416 3.13739 17.1739 3.09028 18.1343 4.85372C20.565 9.31716 25.1283 19.1124 25.1283 19.1124L27.2405 20.3829L19.6657 4.32145C21.1451 2.38505 23.7551 2.65645 24.8801 5.007C26.2315 7.83005 31.9543 20.0918 31.9543 20.0918C26.3046 22.2097 22.448 28.3486 26.4861 34.4004C23.2819 27.784 28.9582 23.1083 32.3114 21.5628C33.5806 20.9771 34.0475 19.8697 34.0475 19.8697L34.0446 19.8704C34.4869 19.0695 34.4609 17.9986 34.9882 16.2654C36.1308 12.5143 37.6981 10.5265 39.998 10.5265C40.5282 10.5265 41.1961 10.9231 41.5027 11.3752C43.0517 13.6611 37.8394 19.1258 38.371 26.7223" fill="white"/>
</svg>
