<svg width="164" height="35" viewBox="0 0 164 35" fill="none" xmlns="http://www.w3.org/2000/svg">
<path d="M0.130625 35V0.295998H25.7626L25.7146 8.024H9.53863V13.784H23.0746V21.32H9.46663V27.224H25.8106V35H0.130625ZM62.8535 0.295998L51.1415 35H40.8695L29.1575 0.295998H37.9655L46.0055 24.056L54.0215 0.295998H62.8535ZM66.8338 35V0.295998H92.4658L92.4178 8.024H76.2418V13.784H89.7778V21.32H76.1698V27.224H92.5138V35H66.8338ZM120.856 0.295998H130.192V35H121.768L107.248 14.312V35H97.9119V0.295998H107.32L120.856 19.64V0.295998ZM134.158 8.504V0.295998H163.294V8.504H153.358V35H143.998V8.504H134.158Z" fill="white"/>
</svg>
