<svg width="211" height="37" viewBox="0 0 211 37" fill="none" xmlns="http://www.w3.org/2000/svg">
<path d="M32.6879 36H22.6559L14.9279 21.36L10.6079 26.928V36H0.911875V1.296H10.6079V15.312L20.6399 1.296H31.1279L21.5999 14.544L32.6879 36ZM52.4661 36.48C49.0261 36.48 46.0421 35.752 43.5141 34.296C41.0021 32.824 39.0581 30.76 37.6821 28.104C36.3061 25.448 35.6181 22.32 35.6181 18.72C35.6181 15.104 36.3141 11.96 37.7061 9.288C39.1141 6.6 41.0821 4.52 43.6101 3.048C46.1381 1.56 49.0901 0.815998 52.4661 0.815998C55.8261 0.815998 58.7621 1.56 61.2741 3.048C63.7861 4.52 65.7381 6.6 67.1301 9.288C68.5221 11.96 69.2181 15.104 69.2181 18.72C69.2181 22.304 68.5301 25.432 67.1541 28.104C65.7941 30.76 63.8581 32.824 61.3461 34.296C58.8341 35.752 55.8741 36.48 52.4661 36.48ZM52.4661 28.992C53.7461 28.992 54.8821 28.672 55.8741 28.032C56.8821 27.376 57.6661 26.312 58.2261 24.84C58.8021 23.352 59.0901 21.36 59.0901 18.864C59.0901 16.288 58.8021 14.232 58.2261 12.696C57.6661 11.144 56.8821 10.024 55.8741 9.336C54.8821 8.648 53.7461 8.304 52.4661 8.304C51.1861 8.304 50.0421 8.648 49.0341 9.336C48.0421 10.024 47.2581 11.144 46.6821 12.696C46.1061 14.232 45.8181 16.288 45.8181 18.864C45.8181 21.36 46.1061 23.352 46.6821 24.84C47.2581 26.312 48.0421 27.376 49.0341 28.032C50.0421 28.672 51.1861 28.992 52.4661 28.992ZM103.354 36H93.7776L88.7376 24.048H83.8416V36H74.5056V1.296H90.2496C93.2576 1.296 95.6736 1.792 97.4976 2.784C99.3376 3.776 100.674 5.12 101.506 6.816C102.338 8.496 102.754 10.384 102.754 12.48C102.754 14.256 102.514 15.776 102.034 17.04C101.57 18.288 100.922 19.36 100.09 20.256C99.2736 21.136 98.3296 21.904 97.2576 22.56L103.354 36ZM89.1936 17.088C90.3936 17.088 91.3856 16.616 92.1696 15.672C92.9696 14.728 93.3696 13.696 93.3696 12.576C93.3696 11.376 92.9376 10.352 92.0736 9.504C91.2096 8.64 90.2496 8.208 89.1936 8.208H83.8416V17.088H89.1936ZM131.715 1.296H141.051V36H132.627L118.107 15.312V36H108.771V1.296H118.179L131.715 20.64V1.296ZM147.537 36V1.296H173.169L173.121 9.024H156.945V14.784H170.481V22.32H156.873V28.224H173.217V36H147.537ZM210.26 1.296L198.548 36H188.276L176.564 1.296H185.372L193.412 25.056L201.428 1.296H210.26Z" fill="white"/>
</svg>
