<svg width="145" height="38" viewBox="0 0 145 38" fill="none" xmlns="http://www.w3.org/2000/svg">
<path d="M44.4477 2.96347C44.3043 2.39068 44.0246 1.86849 43.6364 1.44889C43.2482 1.02928 42.7651 0.72692 42.2352 0.5719C40.2952 0 32.4871 0 32.4871 0C32.4871 0 24.6787 0.0173111 22.7387 0.589211C22.2088 0.744241 21.7257 1.04662 21.3375 1.46624C20.9493 1.88586 20.6696 2.40808 20.5262 2.98089C19.9394 6.70679 19.7117 12.3842 20.5423 15.9611C20.6857 16.5338 20.9654 17.056 21.3536 17.4756C21.7418 17.8952 22.2249 18.1976 22.7548 18.3526C24.6949 18.9245 32.5031 18.9245 32.5031 18.9245C32.5031 18.9245 40.3112 18.9245 42.2511 18.3526C42.781 18.1976 43.2642 17.8953 43.6524 17.4757C44.0406 17.0561 44.3203 16.5339 44.4637 15.9611C45.0826 12.2299 45.2734 6.55606 44.4477 2.96358V2.96347Z" fill="#FF0000"/>
<path d="M30 13.1105L36.4773 9.05523L30 5V13.1105Z" fill="white"/>
<path d="M18.5627 18H13.5467L9.68269 10.68L7.52269 13.464V18H2.67469V0.647999H7.52269V7.656L12.5387 0.647999H17.7827L13.0187 7.272L18.5627 18ZM63.1768 18H58.3888L55.8688 12.024H53.4208V18H48.7528V0.647999H56.6248C58.1288 0.647999 59.3368 0.895999 60.2488 1.392C61.1688 1.888 61.8368 2.56 62.2528 3.408C62.6688 4.248 62.8768 5.192 62.8768 6.24C62.8768 7.128 62.7568 7.888 62.5168 8.52C62.2848 9.144 61.9608 9.68 61.5448 10.128C61.1368 10.568 60.6648 10.952 60.1288 11.28L63.1768 18ZM56.0968 8.544C56.6968 8.544 57.1928 8.308 57.5848 7.836C57.9848 7.364 58.1848 6.848 58.1848 6.288C58.1848 5.688 57.9688 5.176 57.5368 4.752C57.1048 4.32 56.6248 4.104 56.0968 4.104H53.4208V8.544H56.0968ZM77.3576 0.647999H82.0256V18H77.8136L70.5536 7.656V18H65.8856V0.647999H70.5896L77.3576 10.32V0.647999ZM85.2684 18V0.647999H98.0844L98.0604 4.512H89.9724V7.392H96.7404V11.16H89.9364V14.112H98.1084V18H85.2684ZM116.63 0.647999L110.774 18H105.638L99.7819 0.647999H104.186L108.206 12.528L112.214 0.647999H116.63Z" fill="white"/>
<path d="M63.0653 38V20.648H75.8813L75.8573 24.512H67.7693V27.392H74.5373V31.16H67.7333V34.112H75.9053V38H63.0653ZM94.4268 20.648L88.5708 38H83.4348L77.5788 20.648H81.9828L86.0028 32.528L90.0108 20.648H94.4268ZM96.4169 38V20.648H109.233L109.209 24.512H101.121V27.392H107.889V31.16H101.085V34.112H109.257V38H96.4169ZM123.428 20.648H128.096V38H123.884L116.624 27.656V38H111.956V20.648H116.66L123.428 30.32V20.648ZM130.079 24.752V20.648H144.647V24.752H139.679V38H134.999V24.752H130.079Z" fill="white"/>
<rect width="56" height="6" transform="translate(4 21)" fill="white"/>
</svg>
